<svg width="87" height="23" viewBox="0 0 87 23" fill="none" xmlns="http://www.w3.org/2000/svg">
<path d="M4.39489 22L0.417614 6.72727H5.29972L7.35795 16.5114H7.48722L9.6946 6.72727H14.4574L16.7244 16.4418H16.8537L18.8523 6.72727H23.7344L19.7472 22H14.5469L12.1605 13.1009H11.9915L9.60511 22H4.39489ZM25.1257 22V6.72727H29.9879V22H25.1257ZM27.5618 4.94744C26.879 4.94744 26.2924 4.72206 25.8019 4.27131C25.3113 3.81392 25.0661 3.26373 25.0661 2.62074C25.0661 1.98437 25.3113 1.44081 25.8019 0.990057C26.2924 0.53267 26.879 0.303976 27.5618 0.303976C28.2512 0.303976 28.8378 0.53267 29.3217 0.990057C29.8123 1.44081 30.0575 1.98437 30.0575 2.62074C30.0575 3.26373 29.8123 3.81392 29.3217 4.27131C28.8378 4.72206 28.2512 4.94744 27.5618 4.94744ZM37.385 13.2898V22H32.5228V6.72727H37.1463V9.53125H37.3154C37.6534 8.59659 38.2301 7.86411 39.0455 7.33381C39.8608 6.79688 40.8319 6.52841 41.9588 6.52841C43.0327 6.52841 43.964 6.77036 44.7529 7.25426C45.5483 7.73153 46.1648 8.40104 46.6023 9.26278C47.0464 10.1179 47.2652 11.1188 47.2586 12.2656V22H42.3963V13.2202C42.403 12.3717 42.1875 11.7088 41.75 11.2315C41.3192 10.7543 40.7193 10.5156 39.9503 10.5156C39.4399 10.5156 38.9891 10.6283 38.598 10.8537C38.2136 11.0724 37.9153 11.3873 37.7032 11.7983C37.4977 12.2093 37.3916 12.7064 37.385 13.2898ZM58.3296 6.72727V10.3068H48.6946V6.72727H58.3296ZM50.7131 3.06818H55.5753V17.1974C55.5753 17.4957 55.6217 17.7377 55.7145 17.9233C55.814 18.1023 55.9565 18.2315 56.1421 18.3111C56.3277 18.384 56.5498 18.4205 56.8083 18.4205C56.9939 18.4205 57.1894 18.4039 57.3949 18.3707C57.6071 18.331 57.7661 18.2978 57.8722 18.2713L58.608 21.7812C58.376 21.8475 58.0479 21.9304 57.6236 22.0298C57.206 22.1293 56.7055 22.1922 56.1222 22.2188C54.9821 22.2718 54.0043 22.1392 53.189 21.821C52.3803 21.4962 51.7605 20.9924 51.3296 20.3097C50.9053 19.6269 50.6999 18.7685 50.7131 17.7344V3.06818ZM67.2256 22.2884C65.628 22.2884 64.2492 21.9735 63.0892 21.3438C61.9358 20.7074 61.0475 19.8026 60.4244 18.6293C59.8079 17.4493 59.4997 16.0473 59.4997 14.4233C59.4997 12.8456 59.8113 11.4669 60.4344 10.2869C61.0575 9.10038 61.9358 8.17898 63.0693 7.52273C64.2028 6.85985 65.5385 6.52841 67.0764 6.52841C68.1635 6.52841 69.1578 6.69744 70.0594 7.03551C70.9609 7.37358 71.7398 7.87405 72.396 8.53693C73.0523 9.19981 73.5627 10.0185 73.9273 10.9929C74.2918 11.9607 74.4741 13.071 74.4741 14.3239V15.5369H61.2V12.7131H69.95C69.9434 12.196 69.8207 11.7353 69.5821 11.331C69.3435 10.9266 69.0153 10.6117 68.5977 10.3864C68.1867 10.1544 67.7128 10.0384 67.1758 10.0384C66.6323 10.0384 66.1451 10.161 65.7142 10.4062C65.2833 10.6449 64.9419 10.973 64.69 11.3906C64.4381 11.8016 64.3056 12.2689 64.2923 12.7926V15.6662C64.2923 16.2893 64.4149 16.8362 64.6602 17.3068C64.9055 17.7708 65.2535 18.1321 65.7042 18.3906C66.155 18.6491 66.6919 18.7784 67.315 18.7784C67.7459 18.7784 68.137 18.7187 68.4883 18.5994C68.8397 18.4801 69.1413 18.3045 69.3932 18.0724C69.6451 17.8404 69.834 17.5554 69.9599 17.2173L74.4244 17.3466C74.2388 18.3475 73.8311 19.2192 73.2014 19.9616C72.5783 20.6974 71.7596 21.2708 70.7454 21.6818C69.7312 22.0862 68.5579 22.2884 67.2256 22.2884ZM76.3974 22V6.72727H81.1205V9.51136H81.2795C81.558 8.50379 82.012 7.75473 82.6418 7.2642C83.2715 6.76705 84.004 6.51847 84.8392 6.51847C85.0646 6.51847 85.2966 6.53504 85.5352 6.56818C85.7739 6.5947 85.9959 6.63778 86.2014 6.69744V10.9233C85.9694 10.8437 85.6645 10.7808 85.2866 10.7344C84.9154 10.688 84.584 10.6648 84.2923 10.6648C83.7156 10.6648 83.1953 10.794 82.7312 11.0526C82.2739 11.3045 81.9126 11.6591 81.6474 12.1165C81.3889 12.5672 81.2597 13.0975 81.2597 13.7074V22H76.3974Z" fill="black"/>
</svg>
